/* XPM */
static char * ec_xpm[] = {
"64 64 10 1",
" 	c None",
".	c #FFFFFF",
"+	c #000000",
"@	c #FEFEFE",
"#	c #FCFCFC",
"$	c #EEEEEE",
"%	c #E6E6E6",
"&	c #FBFBFB",
"*	c #FAFAFA",
"=	c #FDFDFD",
"................................................................",
".....................................+.....+...+..+.+...........",
"..............+...................+..+..+..+...+..+.+.+.+.......",
"..............+...................+..+..+..+...+..+.+.+.+..+....",
"..............+..........+........+.+...+.+...+..+.+..+.+..+....",
".............+.+.........+.......+..+..+..+...+..+.+.+.+...+....",
".............+.+........@+.......+..+..+..+...+..+.+.+.+..+.....",
"......+......+.+........+........+.+...+.....+..+.+..+.+..+.....",
"......+.....+.+.........+.......+..++++++++..+..+.+.+.+...+.....",
"......+.....+.+......+..+.......+.++.......+++..+.+.+.+..+......",
".....+......+.+......+.+........++..........#+.+.+..+.+..+.+..+.",
".....+.....+.+.......+.+......++..............++.+.+.+.+.+.+..+.",
".....+.....+.+......+..+....++.................+.+.+.+.+...+..+.",
"....+......+.+......+.+...++....................+..+.+.+..+..+..",
"....+.....+.+.......+.+.++......................+.+.+.+...+..+..",
"....+.....+.+......+..++..$%$....................++.+.+...+..+..",
"...+....+.+.+......+++++++.......................++.+.+..+..+...",
"...+....+..+.....+++++++++++.....................+.+.+...+..+...",
"...+....+..+....+++++++++++++....................+.+.+...+..+...",
"..+....+...+...+++++++++++++++.................&.+.+.+..+..+....",
"..+....+......+++++++++++++++++................&.+..+...+..+.+..",
"..+....+.....+++++++++++++++++++...............$.+..+......+.+..",
"......+......+++++++++++++++++++............++..*+..+...+.+..+..",
"......+.....+++++++++++++++++++++.........++++..=+.+....+.+.+..+",
"......+.....+++++++++++++++++++++.......++++.+..$+.+....+.+.+..+",
".....+......+++++++++++++++++++++.....+++++..+...+.+.+.+....+..+",
".....+......+++++++++++++++++++++...++++..+..+...+...+.+...+..+.",
".....+......+++++++++++++++++++++...++....+..+...+...+.+...+..+.",
"....+.......+++++++++++++++++++++.........+.++...+..+.+....+..+.",
"....+.......+++++++++++++++++++++.........+++....+..+.+...+..+..",
"....+.......+++++++++++++++++++++................+..+.+...+..+..",
"...+........+++++++++++++++++++++................+.+.+....+..+..",
"...+........+++++++++++++++++++++................+.+.+...+..+...",
"...+........+++++++++++++++++++++..............+++.+.+...+..+...",
".........+..+++++++++++++++++++++.............++..+.+....+..+...",
".........+..+++++++++++++++++++++...........++....+.+...+..+....",
".........+..+++++++++++++++++++++.........+++...+.+.+...+..+....",
"........+...+++++++++++++++++++++.......++..+..+.+.+....+..+....",
"........+...+++++++++++++++++++++.....+++...+..+.+.+...+..+.....",
"........+...+++++++++++++++++++++...++..+...+..+.+.+...+..+.....",
".......+....+++++++++++++++++++++.++..$.+..+..+.+.+....+..+.....",
".......+....++++++++++++++++++++++.+....+..+..+.+.+...+..+......",
".......+...........+.......+.......+....+..+..+.+.+...+..+......",
"......+.....+.....+......+.+.......+....+.+..+.+.+....+..+......",
"......+.....+.....+......+.+.......+....+.+..+.+.+......+.......",
"......+.....+.....+......+.+.......+....+.+..+.+.+......+.......",
".....+.....+.....+..+...+..+.......+....++..+.+.+.......+.......",
".....+.....+.....+..+...+..+.......+....++..+.+.+......+........",
".....+.....+.....+..+...+..+.......+....++..+.+.+......+........",
"....+.....+.....+..+...+...+.......+....+..+.+.........+........",
"....+.....+.....+..+...+...+.......+....+..+.+........+.........",
"....+.....+.....+..+...+...+.......+....+..+.+........+.........",
".........+.....+..+...+....+.......+....+.+.+.........+.........",
".........+.....+..+...+....+.......+....+.+.+........+..........",
".........+.....+..+...+....+.......+....+.+.+........+..........",
"........+.....+..+...+.....+.......+....++.+.........+..........",
"........+.....+..+...+.....+.......+....++.+........+...........",
"........+.....+..+...+.....+.......+....+..+........+...........",
".............+..+...+......+.......+....+...........+...........",
".............+..+...+......+.......+....+.......................",
".............+..+...+......+.......+....+.......................",
"............+......+.......+.......+....+.......................",
"............+......+.......+.......+....+.......................",
"................................................................"};
